<svg xmlns="http://www.w3.org/2000/svg" xmlns:xlink="http://www.w3.org/1999/xlink" width="1280" zoomAndPan="magnify" viewBox="0 0 960 540.000001" height="720" preserveAspectRatio="xMidYMid meet" version="1.0"><defs><clipPath id="a0781bcc5f"><path d="M 101.089844 0 L 858.683594 0 L 858.683594 539 L 101.089844 539 Z M 101.089844 0 " clip-rule="nonzero"/></clipPath></defs><g clip-path="url(#a0781bcc5f)"><path fill="#000000" d="M 858.914062 303.0625 C 811.789062 291.820312 778.800781 271.265625 762.234375 229.601562 C 744.914062 186.125 762.882812 152.121094 795.304688 118.203125 C 759.175781 124.652344 728.121094 133.214844 699.304688 115.804688 C 665.53125 95.410156 675.921875 62.390625 679.84375 30.738281 C 624.492188 76.835938 570.179688 78.558594 554.632812 10.789062 C 536.800781 38.566406 520.707031 68.613281 480.777344 63.507812 C 443.992188 58.847656 427.707031 29.011719 407.832031 -0.0078125 C 400.828125 48.832031 377.992188 83.257812 332.992188 100.253906 C 288.832031 116.910156 247.882812 105.175781 206.359375 82.300781 C 217.628906 109.300781 218.023438 132.664062 202.199219 153.777344 C 177.335938 186.902344 141.433594 181.441406 101.070312 177.011719 C 120.9375 190.972656 133.707031 204.054688 143.757812 219.636719 C 171.949219 263.191406 154.042969 303.84375 102.28125 311.578125 C 131.027344 322.832031 157.839844 335.617188 168.992188 366.191406 C 168.992188 366.191406 185.628906 430.273438 162.757812 448.171875 C 193.648438 437.34375 213.492188 422.585938 239.710938 427.167969 C 274.316406 433.246094 284.800781 457.050781 284.25 490.367188 C 284.207031 493.792969 279.542969 538.570312 279.097656 538.871094 C 353.378906 491.527344 419.789062 459.507812 455.398438 523.546875 C 500.566406 462.917969 528.117188 459.730469 597.359375 506.449219 C 605.164062 468.953125 632.433594 460.621094 665.359375 460.902344 C 686.875 461.074219 707.679688 464.800781 727.75 472.726562 C 737.328125 476.515625 747.175781 479.660156 758.960938 483.84375 C 739.164062 443.046875 728.4375 404.390625 752.09375 365.222656 C 774.726562 327.726562 811.734375 311.808594 858.914062 303.0625 Z M 858.914062 303.0625 " fill-opacity="1" fill-rule="nonzero"/></g><path fill="#000000" d="M 162.761719 448.171875 C 161.980469 448.761719 161.519531 449.105469 161.519531 449.105469 C 161.949219 448.835938 162.339844 448.492188 162.761719 448.171875 Z M 162.761719 448.171875 " fill-opacity="1" fill-rule="nonzero"/><path fill="#ffee04" d="M 821.3125 299.703125 C 778.882812 289.605469 749.167969 271.074219 734.230469 233.542969 C 718.648438 194.347656 734.839844 163.730469 764.027344 133.207031 C 731.496094 138.988281 703.496094 146.722656 677.578125 131.070312 C 647.109375 112.644531 656.488281 82.929688 660.011719 54.414062 C 610.148438 95.925781 561.234375 97.507812 547.253906 36.441406 C 531.167969 61.445312 516.667969 88.515625 480.707031 83.921875 C 447.59375 79.734375 432.90625 52.859375 415.015625 26.714844 C 408.71875 70.75 388.109375 101.691406 347.566406 117.03125 C 307.796875 132.050781 270.917969 121.472656 233.488281 100.84375 C 243.671875 125.160156 244.003906 146.210938 229.75 165.214844 C 207.355469 195.074219 175 190.160156 138.667969 186.1875 C 156.5625 198.753906 168.070312 210.558594 177.105469 224.5625 C 202.507812 263.8125 186.390625 300.441406 139.746094 307.390625 C 165.65625 317.539062 189.78125 329.082031 199.828125 356.578125 C 199.828125 356.578125 214.835938 414.3125 194.238281 430.445312 C 213.03125 415.714844 239.929688 407.425781 263.554688 411.523438 C 294.71875 416.960938 304.144531 438.464844 303.691406 468.449219 C 303.625 471.515625 299.453125 511.882812 299.054688 512.113281 C 365.941406 469.464844 425.789062 440.621094 457.855469 498.335938 C 498.535156 443.703125 523.367188 440.800781 585.734375 482.914062 C 592.753906 449.164062 617.3125 441.648438 646.996094 441.898438 C 666.371094 442.0625 685.09375 445.402344 703.167969 452.570312 C 711.808594 455.96875 720.707031 458.800781 731.304688 462.554688 C 713.460938 425.847656 703.804688 391.019531 725.136719 355.683594 C 745.496094 321.945312 778.820312 307.601562 821.3125 299.703125 Z M 821.3125 299.703125 " fill-opacity="1" fill-rule="nonzero"/></svg>